# xmcd
#
# Track frame offsets: 
#        150
#        18488
#        32038
#        48786
#        66560
#        81560
#        97806
#        113268
#        131066
#        146058
#        160494
#        174397
#
# Disc length: 2546 seconds
#
# Revision: 0
# Processed by: cddbd v1.5.2PL0 Copyright (c) Steve Scherf et al.
# Submitted via: ExactAudioCopy v0.95a4
#
DISCID=9f09f00c
DTITLE=Dolly Parton - Better day
DYEAR=2011
DGENRE=Country
TTITLE0=In the meantime
TTITLE1=Just leaving
TTITLE2=Somebody's missing you
TTITLE3=Together you and I
TTITLE4=Country is as country does
TTITLE5=Holding everything
TTITLE6=The sacrifice
TTITLE7=I just might
TTITLE8=Better day
TTITLE9=Shine like the Sun
TTITLE10=Get out and stay out
TTITLE11=Let love grow
EXTD=
EXTT0=
EXTT1=
EXTT2=
EXTT3=
EXTT4=
EXTT5=
EXTT6=
EXTT7=
EXTT8=
EXTT9=
EXTT10=
EXTT11=
PLAYORDER=
